<svg width="1280" height="844" viewBox="0 0 1280 844" fill="none" xmlns="http://www.w3.org/2000/svg" version="1.1" xmlns:xlink="http://www.w3.org/1999/xlink" transform="matrix(-1,0,0,1,0,0)">
<g clip-path="url(#clip0_446_60)">
<rect width="1280" height="844" fill="url(#paint0_linear_446_60)"></rect>
<path d="M1003.71 115.851C1000.91 115.572 997.866 115.487 995.062 115.757C987.305 116.504 981.401 120.528 976.658 126.372L994.179 126.419L1020.81 126.45L1020.73 125.932C1015.58 120.421 1010.81 118.091 1003.71 115.851Z" fill="#BFB9FF"></path>
<path d="M884.714 108.091L884.253 107.993C882.794 107.663 881.68 107.209 880.346 106.532C875.574 104.1 867.231 104.501 862.162 106.037L861.346 106.27C855.326 108.063 850.958 112.509 846.686 116.811L846.148 116.488C838.832 112.205 830.326 111.827 822.223 113.86C816.127 115.391 811.173 119.641 808.062 124.971L807.275 126.354L897.512 126.526C895.092 124.173 894.622 119.173 892.471 116.136C890.378 113.181 886.231 110.997 884.714 108.091Z" fill="#BFB9FF"></path>
<path d="M897.51 126.522C899.593 127.113 902.502 126.72 904.72 126.701L920.446 126.584L976.168 126.496C973.595 121.266 970.6 117.371 965.367 114.44C958.685 110.691 951.561 111.435 944.419 113.35L944.063 106.527C943.084 99.9937 938.447 94.0233 933.138 90.2275C926.062 85.1686 916.596 84.1708 908.186 85.5864C900.313 86.913 892.92 91.6914 888.37 98.1413C886.555 100.72 884.107 104.899 884.712 108.087C886.229 110.993 890.376 113.177 892.469 116.132C894.62 119.169 895.09 124.169 897.51 126.522Z" fill="url(#paint1_linear_446_60)"></path>
<path d="M745.855 346.536C742.937 346.404 740.133 346.306 737.241 346.772L736.29 346.929C733.48 347.375 730.648 347.96 727.971 348.939C716.469 353.139 711.546 362.071 706.855 372.377L705.335 372.061C700.774 370.783 696.678 370.471 692.01 371.778C683.448 374.173 677.942 379.762 673.627 387.177L757.886 386.923L828.936 387.495C824.962 380.01 820.179 373.849 812.385 369.893C801.06 364.145 789.671 365.493 778.016 369.276C776.615 366.712 775.252 364.058 773.466 361.73C766.237 352.306 757.499 348.129 745.855 346.536Z" fill="#BFB9FF"></path>
<path d="M699.095 209.604L698.305 209.498C680.488 207.878 661.116 215.16 650.267 229.5C646.081 235.027 642.874 240.904 641.3 247.679C641.022 248.877 640.628 252.414 640.206 252.652C639.946 252.798 636.538 252.431 635.962 252.437C630.096 252.508 623.932 254.128 619.43 257.97C615.033 261.712 613.919 265.515 613.468 271.071C602.043 268.623 588.9 267.868 578.57 274.271C577.024 275.231 574.249 279.099 573.126 279.513C572.214 279.849 565.532 277.998 563.996 277.825C556.44 276.966 543.662 276.706 536.759 280.089C534.426 281.231 533.581 282.843 532.727 285.172L533.456 286.178L638.362 285.786L807.275 285.461L805.121 280.118C802.634 274.932 797.402 270.011 791.926 268.05C784.761 265.486 778.732 265.819 771.813 269.049L771.023 269.422C769.627 267.962 769.004 265.489 768.072 263.694C766.796 261.24 764.942 258.964 762.959 257.033C757.601 251.813 751.868 251.184 744.676 251.159C743.761 249.029 743.551 246.546 742.895 244.312C741.268 238.783 738.424 233.846 734.949 229.247C726.159 217.608 713.346 211.535 699.095 209.604Z" fill="#BFB9FF"></path>
<path d="M1279.99 192.569C1225.69 192.55 1172.01 213.338 1133.42 251.456C1103.86 280.657 1079.96 322.991 1079.2 365.102C1070.67 358.314 1063.57 353.759 1052.07 355.067C1043.23 356.07 1034.89 361.488 1029.51 368.328C1021.55 378.445 1018.88 391.921 1020.54 404.434C1021.05 408.282 1022.49 412.082 1023.75 415.742C1009.27 409.418 995.57 409.035 980.694 414.72C973.384 417.513 967.658 421.508 962.015 426.811C949.845 415.863 937.017 408.789 919.969 409.704C917.037 409.861 873.939 404.434 801.985 498.379C816.351 515.447 903.953 476.352 915.856 495.167C918.264 498.257 940.057 491.363 943.318 493.585L951.807 502.005L959.328 489.56C959.328 516.311 969.29 487.552 971.109 489.56C973.292 491.971 973.988 485.622 974.671 488.805L1019.62 489.342C1027.56 489.475 1036.42 488.838 1044.25 490.065L1279.99 498.348L1279.99 192.569Z" fill="#E5E2FF"></path>
<path d="M748.587 488.12L917.513 481.3L1062.49 485.847L1107.43 486.385C1115.38 486.517 1124.24 485.88 1132.07 487.107L1279.98 492.32V916.996H1090.48C1088.42 909.926 1087.73 904.16 1084.1 897.797C1081.13 892.603 1074.88 887.325 1070.75 882.893C1064.04 875.691 1057.63 868.026 1050.55 861.184L938.729 749.348C937.437 748.419 936.358 746.708 935.642 745.304C932.134 738.427 929.67 730.344 926.746 723.165L905.33 669.628L892.119 637.449C891.757 636.881 891.545 636.497 890.961 636.123C889.281 635.044 886.603 634.438 884.708 633.762L869.259 628.434L807.592 607.601L784.533 599.464L782.31 598.923C777.322 596.197 770.876 595.628 766.14 592.493C762.857 590.319 759.752 586.838 756.866 584.112L738.529 566.359L660.816 488.2L673.626 492.372C674.024 492.129 674.911 491.422 675.32 491.342C677.195 490.978 679.877 491.299 681.835 491.267L695.797 490.567C713.229 488.835 731.057 488.766 748.587 488.12Z" fill="#675AF9"></path>
<path d="M1009.18 600.439L1037.29 645.793C1041.3 645.939 1045.59 645.111 1049.59 644.695L1070.29 642.633L1075.89 642.277L1075.98 641.537L1009.18 600.439Z" fill="#210076"></path>
<path d="M1248.99 706.308L1249.47 705.79L1279.99 725.715V773.255H1275.48C1272.65 772.594 1267.9 772.308 1265.43 770.997L1254.02 725.715C1252.44 719.699 1249.36 712.414 1248.99 706.308Z" fill="#210076"></path>
<path d="M748.586 488.12L917.513 481.3L1062.49 485.847L1107.43 486.385C1115.38 486.517 1124.24 485.88 1132.07 487.107L1279.98 492.195V621.406L1175.76 599.14L1168.5 598.101L1127.91 593.043L1118.31 591.823C1113.76 591.947 1108.56 590.862 1104 590.363L1071.38 586.341L821.953 536.79L673.626 492.372C674.024 492.129 674.911 491.422 675.32 491.342C677.194 490.978 679.877 491.299 681.834 491.267L695.796 490.567C713.228 488.835 731.057 488.766 748.586 488.12Z" fill="#BFB9FF"></path>
<path d="M660.817 488.199L673.627 492.371L821.955 536.789L822.402 537.179C824.825 539.245 827.562 540.598 830.209 542.343L844.989 552.25L877.251 576.427L931.134 620.82L1007.74 676.336L1075.32 717.214L1155.06 764.122L1192.26 785.741L1183.53 864.891L1177.96 916.996H1090.48C1088.98 911.568 1085.86 900.369 1084.1 897.796C1081.13 892.603 1074.89 887.324 1070.75 882.892C1064.04 875.69 1057.63 868.025 1050.55 861.183L938.73 749.347C937.438 748.419 936.359 746.707 935.643 745.303C932.135 738.426 929.671 730.343 926.747 723.164L905.331 669.627L892.12 637.449C891.758 636.88 891.546 636.496 890.962 636.122C889.282 635.043 886.604 634.437 884.709 633.761L869.26 628.433L807.593 607.6L784.534 599.463L782.311 598.922C777.323 596.196 770.877 595.627 766.141 592.492C762.858 590.318 759.753 586.837 756.867 584.111L738.53 566.358L660.817 488.199Z" fill="#210076"></path>
<path d="M807.594 607.598C809.423 603.759 808.615 595.843 808.703 591.432L809.52 562.607L810.857 539.988L799.65 565.044C794.429 576.139 788.128 587.782 784.535 599.46L807.594 607.598Z" fill="#210076"></path>
<path d="M905.333 669.627C923.441 675.208 942.193 679.241 960.656 683.546L1001.92 693.847L1033.77 702.251C1037.68 703.282 1042.07 705.113 1046.05 705.483L1045.65 705.234C1041.21 702.651 1035.93 700.624 1031.26 698.368L991.13 679.829L917.717 647.29C910.24 644.169 902.631 639.922 894.962 637.453C893.865 637.1 893.212 637.175 892.121 637.448L905.333 669.627Z" fill="#210076"></path>
<path d="M195.593 692.335C193.433 690.517 182.373 691.591 178.686 691.57L95.9481 693.35L30.7599 697.151L29.7999 697.825L114.631 702.157C132.133 703.224 151.257 703.24 168.394 707.016L195.593 692.335Z" fill="#C4C1FA"></path>
<path fill-rule="evenodd" clip-rule="evenodd" d="M259.268 657.593C264.955 657.776 270.296 657.948 275.875 659.466C274.387 659.575 273.005 659.795 271.642 660.425C265.178 663.416 258.934 667.089 252.718 670.745C249.442 672.671 246.175 674.593 242.888 676.408L195.586 702.334L168.387 717.014C168.252 717.096 168.109 717.177 167.963 717.26C167.51 717.516 167.034 717.786 166.707 718.155C163.107 719.12 159.63 720.793 156.197 722.445C154.76 723.136 153.331 723.824 151.903 724.455C151.521 724.624 151.107 724.789 150.682 724.958C149.02 725.621 147.169 726.358 146.267 727.725C140.804 728.929 85.2443 753.963 83.124 755.416C80.2444 756.43 75.3475 758.213 71.7281 759.851L53.3141 768.148L1.12064 789.599L-0.00250244 790.173C-0.00250244 789.426 -0.00161743 788.448 -0.000671387 787.381C0.0015564 784.922 0.00421143 781.989 -0.00250244 780.304V761.058V721.087C0.00396729 716.492 0.0017395 711.389 -0.000427246 706.441C-0.00146484 704.023 -0.00250244 701.642 -0.00250244 699.374C-0.00250244 699.045 -0.00216675 698.716 -0.00183105 698.387C-0.00119019 697.729 -0.000549316 697.071 -0.00250244 696.413C0.738373 695.862 2.43149 695.644 3.89508 695.456C4.65048 695.359 5.34473 695.27 5.81534 695.146L19.4336 692.329C63.3894 680.131 108.353 669.016 153.752 663.488C153.779 663.463 153.807 663.438 153.834 663.413L156.129 663.203C156.205 663.194 156.281 663.185 156.357 663.177C156.357 663.179 156.356 663.181 156.355 663.183L164.054 662.478L164.057 662.466L179.524 660.741C179.623 660.733 179.723 660.729 179.825 660.728C180.121 660.703 180.404 660.679 180.679 660.657C183.366 660.435 185.341 660.271 191.499 659.403C195.778 659.019 197.03 658.934 199.494 658.915C207.942 657.852 216.716 657.708 225.282 657.566C227.181 657.535 229.071 657.504 230.945 657.463L257.855 657.546C258.329 657.562 258.8 657.577 259.268 657.593Z" fill="#BFB9FF"></path>
<path d="M275.876 659.472C274.388 659.581 273.005 659.801 271.642 660.431C261.773 664.999 252.412 671.156 242.888 676.414L195.586 702.34L168.388 717.02C167.831 717.36 167.139 717.673 166.707 718.161C161.6 719.53 156.742 722.323 151.903 724.461C150.031 725.29 147.401 726.014 146.268 727.731C140.805 728.935 84.0941 753.954 83.1244 755.422C79.169 756.05 75.3479 758.219 71.7285 759.857L53.3146 768.154L4.12103 789.605C3.61218 790.565 0.119019 792.06 0.09021 793.162L-0.00762939 916.995H531.783L542.121 903.89L556.821 886.582L585.42 852.613C580.999 850.389 576.117 848.82 571.544 846.868C551.167 838.171 530.427 831.262 508.994 825.646C507.736 831.435 506.066 835.867 501.811 840.174C499.433 841.329 497.079 842.575 494.566 843.416C483.605 845.064 471.017 844.081 459.925 843.78C455.172 843.073 451.433 842.296 447.571 839.284L441.969 826.367C436.764 823.723 430.636 822.216 425.04 820.466L389.04 810.108C381.926 809.557 380.372 813.132 380.632 816.174C378.434 817.287 376.232 818.335 373.878 819.164C368.464 820.194 363.757 819.774 358.332 819.102C357.622 823.874 355.167 801.292 353.103 803.5C345.413 801.79 336.043 801.243 328.823 798.293C321.911 795.475 314.97 790.221 308.604 786.288L308.345 786.128C285.25 771.857 261.319 757.07 240.143 740.16L240.133 738.53C239.806 735.786 244.175 729.355 245.577 726.622L268.234 682.745C270.961 677.28 275.012 670.907 276.385 664.967C276.846 662.989 276.462 661.375 275.876 659.472Z" fill="#675AF9"></path>
<path d="M166.713 718.166C161.606 719.535 156.748 722.329 151.909 724.466C150.037 725.296 147.406 726.019 146.273 727.736C143.729 733.113 143.048 740.432 141.8 746.288L125.882 836.918L122.272 855.221C121.84 857.67 121.024 860.289 121.196 862.774L122.281 864.075C121.484 861.704 123.145 858.307 123.904 856.027L127.946 842.658L155.529 751.178L166.713 718.166Z" fill="#210076"></path>
<path d="M191.128 827.441C194.498 826.823 198.415 825.485 201.813 826.293C196.13 829.889 191.003 835.505 186.03 840.037L162.576 860.973L127.284 892.016C119.2 899.042 110.867 905.731 103.388 913.406L103.196 914.618V916.996H62.5042L88.9487 897.116C92.7506 894.103 96.802 891.274 101.132 889.035C106.623 886.19 115.158 884.979 119.056 880.496L119.287 879.79C120.352 876.857 150.7 837.859 154.319 836.287C166.646 833.067 178.561 829.747 191.128 827.441Z" fill="#210076"></path>
<path d="M83.1302 755.424C84.2515 753.963 140.811 728.937 146.273 727.732C143.729 733.109 143.048 740.428 141.8 746.284L125.882 836.914L122.272 855.217C121.84 857.666 121.024 860.285 121.197 862.77L122.282 864.071C119.651 867.449 118.681 874.793 117.779 878.976L119.056 880.495C115.158 884.979 106.623 886.19 101.131 889.035C96.8015 891.274 92.7501 894.103 88.9482 897.116L65.5041 916.996H0.00466919L0.330917 790.997L4.12683 789.607L53.3204 768.155L71.7343 759.859C75.3537 758.22 78.7516 756.924 83.1302 755.424Z" fill="#210076"></path>
<path d="M71.7348 729.853C75.3543 728.214 79.1754 726.045 83.1309 725.418L5.75159 916.809V916.996H0.00402832V762.046L53.3208 738.149L71.7348 729.853Z" fill="#210076"></path>
<path d="M235.276 747.063C236.726 744.243 237.878 740.789 240.134 738.539L240.144 740.169C261.32 757.079 285.251 771.866 308.346 786.137L308.605 786.298C314.971 790.23 321.912 795.484 328.824 798.302C336.044 801.252 345.414 801.799 353.104 803.51L389.041 810.117L425.041 820.475C443.826 820.808 486.915 822.309 508.995 825.655C530.428 831.271 551.168 838.18 571.545 846.877C576.118 848.829 581 850.398 585.421 852.622C562.707 856.298 540.908 862.396 518.534 867.541L401.16 894.201L354.444 904.448L330.543 909.427C326.933 910.254 322.728 910.88 319.358 912.32L317.102 911.703C311.476 902.698 285.967 871.136 285.007 863.494L283.865 861.296C284.287 852.62 283.778 843.799 283.653 835.106C283.596 831.256 282.924 826.658 284.249 823.036C283.625 821.436 283.922 819.261 283.087 817.837C281.369 814.894 275.944 811.085 273.256 808.651C267.937 803.816 227.125 768.289 226.53 766.901L226.242 764.826L235.276 747.063Z" fill="#DAD7FF"></path>
<path d="M363.692 805.748L347.65 832.944C358.524 831.998 373.321 830.12 383.861 833.764L377.749 808.983L363.692 805.748Z" fill="#DAD7FF"></path>
<path d="M296.58 555.783C296.887 553.841 297.82 551.999 298.108 550.002L296.441 549.342C296.564 548.055 296.5 546.594 297.386 545.571L301.55 545.513L297.955 556.976C296.995 560.73 296.574 563.771 296.698 567.655L296.234 568.084L295.699 567.84C294.554 565.815 293.515 563.141 293.759 560.794L294.114 560.836C295.4 559.978 296.013 557.27 296.58 555.783Z" fill="#26249B"></path>
<path d="M315.432 542.156L317.031 543.354L319.443 545.966C314.289 548.813 309.421 551.737 305.424 556.101L304.526 555.325C304.033 553.798 304.346 553.025 304.861 551.516L305.235 550.428C305.848 548.306 306.835 547.489 308.456 546.043L308.76 546.175C311.172 545.972 313.725 543.728 315.432 542.156Z" fill="#F3BCE8"></path>
<path d="M301.551 545.513C303.766 545.574 306.338 545.416 308.456 546.058C306.835 547.504 305.848 548.321 305.235 550.443L304.861 551.53C304.346 553.04 304.033 553.812 304.526 555.34L305.424 556.115L296.699 567.655C296.575 563.771 296.996 560.73 297.956 556.976L301.551 545.513Z" fill="#FFC646"></path>
<path d="M476.058 352.048C476.631 351.133 476.37 351.602 476.995 350.985C478.871 349.134 477.634 340.908 477.634 340.908C478.665 338.688 480.38 346.213 481.693 345.269C484.757 343.065 488.503 339.741 491.528 336.98C491.959 336.587 492.602 337.122 492.292 337.616L488.481 343.676C488.359 343.869 488.594 344.071 488.763 343.918C490.61 342.263 492.1 340.671 494.188 339.455C494.62 339.204 494.992 339.658 494.674 340.044C493.294 341.717 491.518 343.633 491.182 345.021C491.141 345.188 491.328 345.279 491.457 345.166L495.068 342.003C495.168 341.916 495.322 341.948 495.38 342.067L495.545 342.408C495.565 342.449 495.57 342.495 495.56 342.539C495.026 344.733 492.735 346.691 491.09 348.474C490.943 348.634 491.103 348.828 491.284 348.71C492.639 347.82 493.911 346.563 495.248 345.782C495.634 345.556 495.978 345.944 495.723 346.311C492.9 350.373 486.097 353.875 481.693 355.188C481.197 355.336 481.122 355.333 480.677 355.393L479.931 355.19L476.058 352.048Z" fill="#F3BCE8"></path>
<path d="M377.014 507.65L377.03 508.207L317.032 543.385L315.434 542.188C315.756 541.561 316.246 540.975 316.714 540.45C320.848 535.814 326.32 531.78 331.101 527.777L343.452 517.648C346.804 514.985 349.945 512.306 354.043 510.82C361.266 508.2 369.402 508.061 377.014 507.65Z" fill="#29249D"></path>
<path d="M334.316 449.417C337.412 450.867 340.38 452.714 343.135 454.728L351.886 461.017C343.216 466.33 337.885 472.787 334.019 482.195C332.992 484.694 332.381 487.792 330.997 490.072L316.716 482.534L313.245 480.605C314.279 477.449 317.987 473.366 319.946 470.555L334.316 449.417Z" fill="#29249D"></path>
<path d="M334.316 449.417C337.412 450.867 340.38 452.714 343.135 454.728L342.652 455.171C340.161 457.412 337.08 458.994 334.544 461.288C327.512 467.647 322.498 475.174 316.716 482.534L313.245 480.605C314.279 477.449 317.987 473.366 319.946 470.555L334.316 449.417Z" fill="#26249B"></path>
<path d="M381.795 373.76L384.242 374.542C387.818 375.392 391.961 374.95 395.606 374.805L419.456 373.376C423.475 373.139 429.815 373.522 433.54 372.263C435.421 371.628 437.277 370.382 439.045 369.466L449.135 364.48C457.951 360.305 467.685 357.029 476.059 352.066L479.932 355.209L480.679 355.411C478.711 358.6 445.222 382.311 441.806 383.118L385.058 395.331C383.975 393.944 383.42 391.984 382.899 390.331C383.641 388.232 382.734 386.088 382.157 384.036C381.627 382.671 381 381.552 380.168 380.342C379.688 378.078 380.733 375.989 381.514 373.9L381.795 373.76Z" fill="#675AF9"></path>
<path d="M382.157 384.036C383.589 384.43 385.747 388.084 386.679 389.327L407.036 385.994L430.567 382.644C434.369 382.073 439.213 381.862 442.595 380.091C446.088 378.262 449.461 375.718 452.74 373.532L472.536 360.187C474.868 358.636 477.106 356.401 479.66 355.316L479.932 355.208L480.678 355.411C478.71 358.6 445.221 382.311 441.805 383.118L385.057 395.331C383.974 393.944 383.42 391.984 382.898 390.331C383.64 388.232 382.734 386.088 382.157 384.036Z" fill="#29249D"></path>
<path d="M351.887 461.013C364.789 470.441 376.765 479.96 386.426 492.748C388.937 496.071 392.047 500.258 392.647 504.461C392.942 506.53 392.81 508.703 391.468 510.409C389.368 513.081 385.579 514.981 382.6 516.549C378.421 518.75 374.027 520.509 369.742 522.49L342.897 534.986L327.624 542.29C325.053 543.537 322.215 545.278 319.444 545.969L317.032 543.357L377.029 508.18L377.014 507.623C375.072 505.791 370.249 505.007 367.603 504.139L351.423 498.449L330.998 490.068C332.382 487.788 332.993 484.69 334.02 482.191C337.886 472.783 343.217 466.326 351.887 461.013Z" fill="#675AF9"></path>
<path d="M327.271 350.283C328.658 355.981 331.778 359.031 336.427 362.454C343.656 364.824 349.758 368.24 356.427 371.828C358.017 372.684 361.276 373.983 362.322 375.398C363.41 375.519 364.784 375.761 365.875 375.586C368.695 375.132 371.151 372.358 372.8 370.258C374.548 369.392 378.991 366.832 382.773 363.526C387.501 359.393 390.726 358.798 395.53 352.625C396.462 350.147 396.775 348.09 395.607 345.549C393.389 340.724 387.577 338.137 382.773 336.56C378.102 335.026 373.485 334.787 368.632 335.419C362.378 336.232 348.809 343.4 343.329 339.253C338.245 335.406 339.958 327.266 331.924 328.154C327.987 328.589 324.26 329.919 320.375 330.608C319.037 330.845 318.098 331.265 316.867 330.654L316.563 329.112C315.583 329.431 315.273 330.088 314.818 331.005C314.127 332.399 314.05 334.3 314.568 335.752C315.357 337.964 317.476 339.057 319.531 339.9C322.093 340.951 324.462 341.477 325.681 344.232C326.5 346.085 326.792 348.314 327.271 350.283Z" fill="url(#paint2_linear_446_60)"></path>
<path d="M312.637 363.158C320.209 361.89 328.242 362.689 335.868 363.123C343.098 365.492 349.199 368.909 355.869 372.497C357.459 373.352 360.717 374.651 361.763 376.066C362.851 376.187 364.225 376.429 365.316 376.254C368.136 375.8 370.592 373.027 372.241 370.926C375.383 371.682 378.178 372.942 380.956 374.561C380.175 376.65 379.131 378.738 379.611 381.002C380.442 382.212 381.069 383.331 381.6 384.697C382.177 386.748 383.083 388.892 382.341 390.991C382.863 392.644 383.417 394.604 384.5 395.991C386.422 401.062 389.104 406.193 386.446 411.543C385.156 414.138 382.388 416.727 379.674 417.874C373.129 420.353 368.331 420.154 361.601 418.465L354.496 425.282L340.695 440.314C336.511 438.243 332.884 435.78 329.33 432.777C324.91 429.07 321.622 425.052 318.723 420.092C324.6 414.101 328.566 408.316 331.789 400.572C333.895 395.836 335.855 390.198 336.775 385.091C330.955 385.659 324.972 386.035 319.235 387.18C306.146 389.791 294.266 394.612 281.697 398.722L282.759 394.064L282.094 392.549L280.833 390.71L291.327 379.081L297.415 372.069C300.504 369.667 302.815 366.227 306.057 363.96C308.439 362.295 309.919 362.673 312.637 363.158Z" fill="#675AF9"></path>
<path d="M356.792 413.146C356.792 413.146 358.132 412.86 359.76 412.316L366.506 409.298C369.554 413.382 371.643 416.076 377.026 416.865L380.23 417.216C373.684 419.695 368.886 419.496 362.157 417.806C357.4 416.425 350.378 417.045 346.241 414.469C344.759 413.546 343.602 412.157 342.515 410.826L342.894 410.17C344.301 411.661 345.464 412.637 347.36 413.53L347.802 413.724C349.797 414.745 352.374 413.891 354.497 413.579L356.792 413.146Z" fill="#29249D"></path>
<path d="M313.195 362.49C320.767 361.222 328.801 362.021 336.427 362.454C343.656 364.824 349.758 368.241 356.427 371.829C358.017 372.684 361.276 373.983 362.322 375.398C363.41 375.519 364.784 375.761 365.875 375.586C368.695 375.132 371.151 372.359 372.8 370.258C375.941 371.013 378.736 372.274 381.515 373.893C380.734 375.982 379.689 378.07 380.169 380.334C381.001 381.544 381.628 382.663 382.158 384.029C382.735 386.08 383.642 388.224 382.9 390.323C379.311 394.37 374.095 397.324 369.602 400.333C367.645 397.569 366.154 394.409 364.559 391.432C363.133 388.769 361.32 386.065 360.888 383.042L345.632 383.843L337.334 384.422C331.513 384.991 325.531 385.367 319.794 386.511C306.705 389.122 294.825 393.944 282.255 398.054L283.317 393.396L282.652 391.881L281.392 390.041L291.885 378.413L297.974 371.401C301.062 368.999 303.374 365.559 306.616 363.291C308.997 361.627 310.478 362.005 313.195 362.49Z" fill="#675AF9"></path>
<path d="M282.651 391.882L313.39 371.523L326.939 371.594C328.912 371.611 331.45 371.384 333.363 371.811C334.372 372.037 335.245 372.924 335.978 373.595L331.283 374.293C329.28 376.413 324.964 377.289 322.234 378.278C315.492 380.72 307.277 384.665 300.064 384.931C299.394 384.956 298.711 384.846 298.054 384.725C293.428 387.612 288.391 391.423 283.316 393.397L282.651 391.882Z" fill="#29249D"></path>
<path d="M298.056 384.718C301.075 382.628 304.337 380.778 307.487 378.878C309.431 377.706 311.606 376.161 313.801 375.532C315.767 374.968 318.18 375.109 320.236 375.016L331.285 374.286C329.282 376.406 324.965 377.283 322.235 378.272C315.493 380.713 307.279 384.658 300.066 384.925C299.396 384.949 298.712 384.839 298.056 384.718Z" fill="#FFDA87"></path>
<path d="M339.368 372.554C342.3 372.668 345.303 374.474 347.906 375.685L360.425 381.415C360.85 382.134 360.937 382.224 360.889 383.044L345.632 383.846L337.334 384.425C331.513 384.993 325.531 385.37 319.794 386.514C306.705 389.125 294.825 393.947 282.255 398.057L283.318 393.398C288.393 391.424 293.43 387.613 298.056 384.726C298.712 384.847 299.396 384.957 300.066 384.933C307.279 384.666 315.493 380.721 322.235 378.28C324.965 377.291 329.282 376.414 331.284 374.294L335.979 373.597C337.177 373.434 338.246 372.982 339.368 372.554Z" fill="#FFCA54"></path>
<path d="M313.195 362.49C320.767 361.222 328.801 362.021 336.427 362.454C343.656 364.824 349.758 368.241 356.427 371.829C358.017 372.684 361.276 373.983 362.321 375.398C363.41 375.519 364.784 375.761 365.875 375.586C368.695 375.132 371.151 372.359 372.8 370.258C375.941 371.013 377.585 372.227 380.364 373.846C379.582 375.935 379.689 378.07 380.169 380.334C381.001 381.544 381.628 382.663 382.158 384.029C382.735 386.08 383.642 388.224 382.9 390.323C379.311 394.37 374.095 397.324 369.602 400.333C367.645 397.569 366.154 394.409 364.559 391.432C363.133 388.769 361.32 386.065 360.888 383.042C360.936 382.221 360.849 382.131 360.425 381.412L347.906 375.682C345.302 374.471 342.299 372.665 339.368 372.551L313.195 362.49Z" fill="#FFBF2F"></path>
<path d="M319.284 419.415C322.182 424.374 325.471 428.392 329.891 432.099C333.445 435.102 337.072 437.565 341.255 439.637C340.529 441.19 339.439 443.078 338.048 444.143L334.319 449.41L319.949 470.548C317.991 473.359 314.283 477.443 313.249 480.598L312.803 481.09C310.619 483.556 309.015 486.777 307.016 489.437C301.773 496.41 296.232 503.196 290.301 509.61C271.223 530.241 247.983 546.735 225.775 563.881C217.212 569.971 209.023 577.711 199.983 582.979C198.035 585.063 195.416 587.355 192.998 588.891L187.537 586.389C195.836 573.27 203.896 558.988 213.913 547.087C220.107 539.723 226.682 535.39 235.587 531.622C237.903 530.367 240.529 529.758 243.07 529.106C245.976 524.737 247.858 518.982 250.079 514.183L267.995 468.963L268.214 468.005C272.355 454.601 280.797 440.824 293.168 433.545C300.156 429.433 307.788 426.472 314.861 422.467L319.284 419.415Z" fill="#675AF9"></path>
<path d="M319.28 419.415C322.178 424.374 325.466 428.392 329.887 432.099C333.441 435.102 337.068 437.565 341.251 439.637C340.525 441.19 339.435 443.078 338.044 444.143L325.613 435.293C321.459 431.698 317.75 427.095 314.857 422.467L319.28 419.415Z" fill="#FFCA54"></path>
<path d="M161.578 400.485C161.583 398.159 162.294 395.495 162.66 393.182C163.965 384.924 164.91 377.131 161.15 369.323C156.121 358.878 143.752 353.44 133.407 349.775C137.11 348.992 142.216 349.541 146.026 349.823C158.415 350.738 170.448 354.278 181.273 360.34C186.939 363.513 192.314 367.004 198.307 369.605C205.708 372.818 214.017 375.036 221.988 376.36C247.051 380.525 273.182 375.289 297.974 371.4L291.886 378.412L281.392 390.041L282.653 391.88L283.318 393.395L282.256 398.053C281.621 399.967 280.545 404.118 278.588 405.09C275.361 406.693 267.139 407.59 263.564 407.295C259.879 408.017 256.738 410.366 253.442 412.062L241.048 417.875C225.491 424.776 209.153 430.206 192.055 431.404C187.169 431.746 182.098 430.812 177.326 431.223C172.549 429.394 168.611 426.68 165.543 422.574C160.961 416.441 160.481 407.765 161.578 400.485Z" fill="#FFEABB"></path>
<path d="M161.578 400.474C163.608 403.444 164.665 406.538 167.495 408.99C172.411 413.252 180.884 414.723 187.187 415.386C221.12 418.949 250.924 398.455 279.72 384.004C283.626 382.043 287.466 378.708 291.886 378.401L281.392 390.03L282.653 391.869L283.318 393.384L282.256 398.042C281.621 399.956 280.546 404.107 278.588 405.078C275.361 406.682 267.139 407.578 263.564 407.284C259.879 408.006 256.738 410.355 253.442 412.051L241.048 417.864C225.491 424.765 209.153 430.195 192.055 431.392C187.169 431.735 182.098 430.801 177.326 431.212C172.55 429.383 168.611 426.669 165.544 422.563C160.961 416.43 160.482 407.754 161.578 400.474Z" fill="#FFDA87"></path>
<path d="M282.257 398.045C294.826 393.935 306.706 389.113 319.795 386.502C325.532 385.358 331.515 384.981 337.335 384.413C336.415 389.521 334.455 395.158 332.349 399.895C329.126 407.638 325.16 413.423 319.283 419.415L314.86 422.467C307.787 426.472 300.155 429.433 293.167 433.545C280.796 440.823 272.354 454.601 268.213 468.005L267.995 468.963C259.638 472.774 251.753 477.544 243.259 481.101C216.459 492.325 184.465 496.248 156.633 486.122C151.215 484.15 146.208 481.445 141.971 477.54C151.456 475.492 160.009 472.842 169.062 469.503C173.874 466.633 178.84 463.549 182.404 459.189C185.574 455.312 188.55 450.316 187.801 445.127C186.941 439.171 181.821 434.741 177.327 431.215C182.099 430.804 187.17 431.737 192.056 431.395C209.154 430.198 225.492 424.767 241.049 417.866L253.443 412.054C256.739 410.357 259.88 408.008 263.565 407.286C267.14 407.581 275.362 406.684 278.589 405.081C280.547 404.109 281.622 399.958 282.257 398.045Z" fill="#FBD379"></path>
<path d="M281.299 397.937C293.869 393.827 306.705 389.113 319.793 386.502C325.53 385.358 331.513 384.981 337.333 384.413C336.413 389.521 334.453 395.158 332.347 399.895C313.998 401.969 296.208 408.349 280.021 416.962L231.544 445.807C216.964 453.803 201.554 460.073 185.717 465.196L177.081 467.815C174.511 468.607 171.794 469.711 169.061 469.503C173.872 466.633 178.838 463.549 182.402 459.189C185.572 455.312 188.548 450.316 187.799 445.127C186.94 439.171 181.819 434.741 177.326 431.215C182.097 430.804 187.169 431.737 192.054 431.395C209.152 430.198 225.49 424.767 241.047 417.866L253.441 412.054C256.737 410.357 259.878 408.008 263.563 407.286C267.138 407.581 273.894 404.978 277.121 403.374C279.078 402.403 280.664 399.85 281.299 397.937Z" fill="#FFC646"></path>
<path d="M192.997 588.892L187.536 586.391C185.858 588.545 184.108 591.39 181.834 592.939L181.113 593L176.623 591.651C174.832 591.793 173.489 591.917 172.221 593.317C170.699 594.998 174.079 595.006 173.603 597.225C172.698 601.378 168.316 605.983 169.003 609.951L169.646 610.787L169.321 611.416L171.752 609.328L172.221 609.069L185.177 595.595L192.997 588.892Z" fill="#F3BCE8"></path>
<path d="M168.465 602.412C168.971 600.199 170.181 598.152 170.67 595.874L168.828 594.98C169.073 593.507 169.117 591.819 170.208 590.712L174.963 590.662L169.932 603.895C168.537 608.144 167.812 611.613 167.638 616.098L167.076 616.554L166.488 616.231C165.35 613.806 164.385 610.643 164.852 607.958L165.252 608.035C166.785 607.149 167.7 604.079 168.465 602.412Z" fill="#26249B"></path>
<path d="M174.946 590.656C177.46 590.904 180.364 591.622 182.72 592.531C180.76 594.067 179.604 594.234 178.736 596.629L178.222 597.852C177.515 599.55 177.096 600.415 177.533 602.214L178.491 603.179L167.637 615.776C167.811 611.292 168.536 607.822 169.931 603.574L174.946 590.656Z" fill="#FFC646"></path>
<path fill-rule="evenodd" clip-rule="evenodd" d="M395.622 351.751C394.289 349.466 390.73 345.954 386.38 351.751C382.571 356.827 381.778 359.102 381.72 359.978C381.709 359.901 381.697 359.822 381.685 359.74C381.359 357.522 380.781 353.578 379.641 353.578C378.164 353.578 372.67 354.311 376.735 362.55C375.324 366.895 371.2 376.046 365.99 377.885C365.227 378.04 363.834 378.187 362.974 377.891C362.866 377.833 362.759 377.783 362.654 377.744C362.506 377.653 362.389 377.539 362.315 377.398C362.327 377.482 362.34 377.572 362.355 377.667C362.347 377.666 362.339 377.665 362.33 377.664C362.216 379.738 363.11 383.343 363.871 385.234C365.169 388.456 366.681 391.655 368.282 394.78C368.827 395.958 369.416 397.179 370.052 398.439C370.09 398.415 370.129 398.391 370.169 398.367C370.215 398.453 370.261 398.539 370.307 398.624C374.321 396.525 378.115 393.751 381.736 391.042C381.672 390.819 381.609 390.586 381.548 390.344C381.564 390.325 381.579 390.306 381.592 390.287C381.447 389.676 381.263 388.901 381.072 388.085C380.783 386.441 380.588 384.703 380.54 383.301C380.06 381.007 381.83 375.372 382.611 373.255C382.791 372.768 382.893 372.251 382.927 371.72C383.847 372.076 385.38 372.64 385.8 372.675C385.815 372.677 385.834 372.679 385.855 372.681C386.618 372.755 390.91 373.171 392.948 364.36C393.742 361.313 395.622 353.998 395.622 351.751Z" fill="#F3BCE8"></path>
<path d="M270.267 392.206C271.368 391.593 280.396 391.006 281.335 389.948L281.39 390.019C283.046 392.199 283.071 392.232 283.655 393.284C282.175 396.789 284.597 395.061 278.685 403.039C277.81 404.219 274.825 406.171 269.667 407.309C268.308 407.658 265.292 408.367 264.102 408.412C262.614 408.467 263.275 407.971 263.33 407.897C263.385 407.824 265.369 407.163 267.353 406.354C268.94 405.708 268.491 405.473 268.069 405.436L262.779 407.163C260.257 408.035 260.389 407.163 260.998 406.85C263.012 405.956 267.353 404.183 267.353 403.909C267.353 403.488 266.808 403.737 266.581 403.845C264.573 404.681 260.23 406.454 258.922 406.85C257.614 407.247 257.831 406.341 258.426 406.171C258.908 405.941 260.507 405.154 263.042 403.845C265.577 402.535 265.119 401.961 264.574 401.838C263.183 402.313 260.148 403.38 259.134 403.845C258.12 404.309 257.7 403.661 258.236 403.264C263.748 400.254 286.574 392.774 267.353 393.749C265.664 393.749 269.796 392.468 270.267 392.206Z" fill="#F9A7E9"></path>
<path d="M263.5 408C273.5 406 280.667 396.833 283 392.5L283.5 393.5L283 396C283 397.6 279.667 402 278 404C275.6 406 268 407.833 264.5 408.5C262.9 408.5 263.167 408.167 263.5 408Z" fill="#F9A7E9"></path>
</g>
<defs>
<linearGradient id="paint0_linear_446_60" x1="451" y1="-146.881" x2="826.071" y2="1039.81" gradientUnits="userSpaceOnUse">
<stop stop-color="#675AF9"></stop>
<stop offset="1" stop-color="#BFB9FF"></stop>
</linearGradient>
<linearGradient id="paint1_linear_446_60" x1="930.393" y1="117.222" x2="909.323" y2="83.3833" gradientUnits="userSpaceOnUse">
<stop stop-color="#EBE9F7"></stop>
<stop offset="1" stop-color="#FAFAF9"></stop>
</linearGradient>
<linearGradient id="paint2_linear_446_60" x1="373.279" y1="340.342" x2="327.856" y2="375.647" gradientUnits="userSpaceOnUse">
<stop stop-color="#210076"></stop>
<stop offset="1" stop-color="#34348A"></stop>
</linearGradient>
<clipPath id="clip0_446_60">
<rect width="1280" height="844" fill="white"></rect>
</clipPath>
</defs>
</svg>